<?xml version="1.0" encoding="UTF-8"?>
<!DOCTYPE svg PUBLIC "-//W3C//DTD SVG 1.1//EN" "http://www.w3.org/Graphics/SVG/1.1/DTD/svg11.dtd">
<!-- Creator: CorelDRAW X6 -->
<svg xmlns="http://www.w3.org/2000/svg" xml:space="preserve" width="210mm" height="297mm" version="1.1" style="shape-rendering:geometricPrecision; text-rendering:geometricPrecision; image-rendering:optimizeQuality; fill-rule:evenodd; clip-rule:evenodd"
viewBox="0 0 21000 29700"
 xmlns:xlink="http://www.w3.org/1999/xlink">
 <defs>
  <style type="text/css">
   <![CDATA[
    .fil0 {fill:#F47231}
   ]]>
  </style>
 </defs>
 <g id="Слой_x0020_1">
  <metadata id="CorelCorpID_0Corel-Layer"/>
  <path class="fil0" d="M10496 5846c4963,0 9000,4037 9000,9000 0,4963 -4037,9000 -9000,9000 -4963,0 -9000,-4037 -9000,-9000 0,-4963 4037,-9000 9000,-9000m0 -1496c-5793,0 -10496,4704 -10496,10496 0,5800 4704,10504 10496,10504 5793,0 10504,-4704 10504,-10504 0,-5793 -4704,-10496 -10504,-10496l0 0z"/>
  <path class="fil0" d="M10496 15950c-141,0 -274,-37 -400,-111 -222,-133 -356,-378 -356,-637l0 -7000c0,-415 333,-748 748,-748 415,0 748,333 748,748l0 5800 3296 -1615c370,-185 822,-30 1000,341 185,370 30,822 -341,1000l-4378 2141c-89,59 -207,81 -319,81z"/>
 </g>
</svg>
