<?xml version="1.0" encoding="UTF-8"?>
<!DOCTYPE svg PUBLIC "-//W3C//DTD SVG 1.1//EN" "http://www.w3.org/Graphics/SVG/1.1/DTD/svg11.dtd">
<!-- Creator: CorelDRAW X6 -->
<svg xmlns="http://www.w3.org/2000/svg" xml:space="preserve" width="210mm" height="297mm" version="1.1" style="shape-rendering:geometricPrecision; text-rendering:geometricPrecision; image-rendering:optimizeQuality; fill-rule:evenodd; clip-rule:evenodd"
viewBox="0 0 21000 29700"
 xmlns:xlink="http://www.w3.org/1999/xlink">
 <defs>
  <style type="text/css">
   <![CDATA[
    .fil0 {fill:#F47231}
   ]]>
  </style>
 </defs>
 <g id="Слой_x0020_1">
  <metadata id="CorelCorpID_0Corel-Layer"/>
  <g id="_942388288">
   <path class="fil0" d="M17301 10486l-6797 5987 -6804 -5987c-267,-238 -683,-215 -921,59 -238,267 -215,683 59,921l7235 6374c126,111 275,163 431,163 156,0 312,-52 431,-163l7235 -6374c267,-238 297,-654 59,-921 -245,-275 -654,-297 -929,-59z"/>
   <path class="fil0" d="M19039 7708l-17078 0c-1085,0 -1961,877 -1961,1961l0 10370c0,1085 877,1961 1961,1961l17078 0c1077,0 1961,-877 1961,-1961l0 -10370c0,-1085 -877,-1961 -1961,-1961zm654 12324c0,357 -290,654 -654,654l-17078 0c-364,0 -654,-290 -654,-654l0 -10363c0,-357 290,-654 654,-654l17078 0c364,0 654,290 654,654l0 10363z"/>
  </g>
 </g>
</svg>
