<?xml version="1.0" encoding="UTF-8"?>
<!DOCTYPE svg PUBLIC "-//W3C//DTD SVG 1.1//EN" "http://www.w3.org/Graphics/SVG/1.1/DTD/svg11.dtd">
<!-- Creator: CorelDRAW X6 -->
<svg xmlns="http://www.w3.org/2000/svg" xml:space="preserve" width="210mm" height="297mm" version="1.1" style="shape-rendering:geometricPrecision; text-rendering:geometricPrecision; image-rendering:optimizeQuality; fill-rule:evenodd; clip-rule:evenodd"
viewBox="0 0 21000 29700"
 xmlns:xlink="http://www.w3.org/1999/xlink">
 <defs>
  <style type="text/css">
   <![CDATA[
    .fil0 {fill:#F47231}
   ]]>
  </style>
 </defs>
 <g id="Слой_x0020_1">
  <metadata id="CorelCorpID_0Corel-Layer"/>
  <g id="_156406592">
   <path class="fil0" d="M10496 25350c-5785,0 -10496,-4711 -10496,-10504 0,-5793 4711,-10496 10496,-10496 5785,0 10496,4711 10496,10496 0,5785 -4704,10504 -10496,10504zm0 -19496c-4956,0 -8993,4037 -8993,8993 0,4956 4037,8993 8993,8993 4956,0 8993,-4037 8993,-8993 0,-4956 -4030,-8993 -8993,-8993z"/>
   <polygon class="fil0" points="15178,16320 12726,10469 10489,14683 8259,10469 5807,16320 4667,16320 4667,17883 8341,17883 8341,16320 7356,16320 8407,13831 10489,17972 12570,13831 13622,16320 12644,16320 12644,17883 16311,17883 16311,16320 "/>
  </g>
 </g>
</svg>
